<svg width="952" height="225" viewBox="0 0 952 225" fill="none" xmlns="http://www.w3.org/2000/svg">
<path d="M300.665 214.253C296.183 219.316 289.752 221.848 281.369 221.848C272.989 221.848 266.46 219.316 261.782 214.253C257.301 209.19 255.061 202.564 255.061 194.374V91.1731C255.061 84.5453 256.817 79.2826 260.328 75.3849C264.029 71.2961 269.291 69.2517 276.115 69.2517C282.937 69.2517 288.199 70.9086 291.902 74.2226C295.603 77.3445 297.552 81.7296 297.749 87.3779V89.714H298.303C306.684 74.5115 318.768 66.9102 334.555 66.9102C341.572 66.9102 347.029 69.1502 350.927 73.6302C354.825 77.9257 356.774 83.0903 356.774 89.1239C356.774 95.3605 354.825 100.818 350.927 105.497C347.028 110.176 341.279 112.515 333.678 112.515C316.137 112.515 307.367 122.359 307.367 142.045V194.374C307.367 202.561 305.126 209.188 300.644 214.255L300.665 214.253Z" fill="url(#paint0_linear_43_180)"/>
<path d="M452.981 224.486C424.915 224.486 403.476 217.372 388.663 203.143C373.851 188.721 366.444 169.231 366.444 144.674C366.444 121.675 373.656 102.964 388.079 88.5405C402.501 74.1181 421.017 66.9069 443.626 66.9069C466.43 66.9069 483.971 73.2416 496.25 85.9111C508.723 98.579 514.96 114.756 514.96 134.441C514.96 142.822 513.011 149.059 509.113 153.152C505.214 157.049 498.588 158.998 489.233 158.998H418.483C418.483 164.836 421.503 169.903 427.544 174.199C433.585 178.494 442.648 180.642 454.733 180.642C460.583 180.642 467.015 179.668 474.028 177.719C481.045 175.778 486.307 174.808 489.815 174.808C495.666 174.808 500.344 176.657 503.848 180.354C507.359 184.052 509.115 188.535 509.115 193.803C509.115 202.964 504.827 210.078 496.251 215.145C486.506 221.382 472.083 224.5 452.983 224.5L452.981 224.486ZM417.607 130.933H466.138C466.322 130.343 466.415 129.177 466.415 127.434C466.415 121.788 464.465 117.013 460.567 113.109C456.668 109.02 450.821 106.976 443.026 106.976C435.814 106.976 429.772 109.216 424.9 113.696C420.026 118.183 417.589 123.933 417.589 130.945L417.607 130.933Z" fill="url(#paint1_linear_43_180)"/>
<path d="M588.633 214.253C584.151 219.316 577.72 221.848 569.337 221.848C560.957 221.848 554.428 219.316 549.75 214.253C545.269 209.19 543.028 202.564 543.028 194.374V91.1733C543.028 84.5455 544.781 79.2827 548.286 75.3851C551.987 71.2963 557.249 69.2519 564.073 69.2519C570.699 69.2519 575.864 71.2004 579.568 75.0974C583.466 78.795 585.514 83.7654 585.71 90.0086V93.8169H586.264C590.162 85.6312 596.692 79.1023 605.852 74.2304C615.012 69.3519 624.757 66.9126 635.088 66.9126C675.627 66.9126 695.897 92.1526 695.897 142.633V194.38C695.897 202.565 693.656 209.192 689.175 214.26C684.694 219.323 678.262 221.855 669.88 221.855C661.499 221.855 654.97 219.323 650.292 214.26C645.615 208.998 643.277 202.371 643.277 194.38V144.679C643.277 124.019 635.968 113.689 621.35 113.689C613.164 113.689 606.83 116.52 602.347 122.181C597.866 127.834 595.625 135.338 595.625 144.692L595.348 194.391C595.348 202.577 593.107 209.204 588.626 214.271L588.633 214.253Z" fill="url(#paint2_linear_43_180)"/>
<path d="M753.987 69.2694C746.179 69.491 740.053 72.0925 735.668 76.8418C731.185 81.9013 728.955 88.4552 728.955 96.4472V194.374C728.955 202.356 731.321 209.002 735.998 214.263C740.675 219.322 747.174 221.88 755.555 221.88C763.934 221.88 770.393 219.322 774.873 214.263C779.357 209.204 781.587 202.56 781.587 194.374V96.4472C781.587 88.2659 779.358 81.7152 774.873 76.8418C770.39 71.7824 763.936 69.2694 755.555 69.2694C755.001 69.2694 754.503 69.2538 753.981 69.2694H753.987Z" fill="url(#paint3_linear_43_180)"/>
<path d="M832.458 221.856C825.831 221.856 820.081 219.612 815.208 215.124C810.334 210.445 807.897 204.988 807.897 198.753C807.897 194.074 809.26 189.98 811.985 186.473L845.606 144.961L813.155 104.614C810.816 101.492 809.646 97.5946 809.646 92.9212C809.646 86.4853 812.083 80.9304 816.958 76.2563C822.022 71.577 827.772 69.2374 834.207 69.2374C839.081 69.2374 842.979 70.3076 845.901 72.448C848.823 74.5883 852.039 77.9021 855.548 82.3895L878.936 113.087H879.49L902.002 83.2663C904.727 79.7606 906.676 77.3251 907.85 75.9597C909.212 74.5942 911.358 73.1328 914.286 71.5756C917.208 70.0183 920.619 69.2396 924.518 69.2396C931.144 69.2396 936.991 71.5792 942.059 76.2585C947.124 80.9377 949.656 86.4923 949.656 92.9223C949.656 97.6015 948.487 101.401 946.148 104.321L914.573 144.959L947.317 186.473C949.853 189.787 951.121 193.88 951.121 198.752C951.121 204.988 948.589 210.446 943.524 215.124C938.65 219.604 932.803 221.844 925.983 221.844C921.692 221.844 918.086 220.874 915.166 218.933C912.434 216.984 909.414 213.866 906.104 209.578L880.081 177.413H879.528L852.924 209.572C846.298 217.758 839.476 221.851 832.459 221.851L832.458 221.856Z" fill="url(#paint4_linear_43_180)"/>
<path d="M114.984 56.7866C130.665 56.7866 143.377 44.0746 143.377 28.3934C143.377 12.7122 130.665 0 114.984 0C99.3024 0 86.5903 12.7122 86.5903 28.3934C86.5903 44.0746 99.3024 56.7866 114.984 56.7866Z" fill="url(#paint5_linear_43_180)"/>
<path d="M65.32 221.858H63.8571C53.3323 221.858 45.341 218.834 39.8837 212.79C34.4265 206.553 29.9438 197.101 26.4354 184.432L1.87757 102.281C-0.850279 92.5352 -0.0701447 84.641 4.21722 78.5986C8.70017 72.362 16.0085 69.2434 26.1432 69.2434C38.0323 69.2434 45.536 76.747 48.6544 91.7547L67.3657 164.843H67.9189L83.9983 101.11C86.7232 89.6102 90.4263 81.4248 95.1078 76.5529C99.7849 71.6817 106.509 69.2451 115.28 69.2451H116.744C125.125 69.3927 131.363 71.8293 135.455 76.5529C139.55 81.2321 142.96 89.4176 145.687 101.11L162.06 164.843H162.613L181.031 91.7547C182.787 84.1556 185.418 78.5035 188.923 74.7977C192.624 71.1001 198.081 69.2518 205.294 69.2518C214.844 69.2518 221.666 72.3688 225.759 78.6053C230.05 84.65 230.829 92.5442 228.097 102.287L203.539 184.438C199.641 196.912 194.963 206.267 189.506 212.504C184.245 218.549 176.546 221.667 166.41 221.859H164.66C154.721 221.859 147.023 218.838 141.565 212.793C136.305 206.748 132.114 197.588 128.994 185.312L114.96 135.025H114.407L100.959 185.312C97.8403 197.006 93.4554 206.069 87.8034 212.501C82.3462 218.737 74.8419 221.854 65.2913 221.854L65.32 221.858Z" fill="url(#paint6_linear_43_180)"/>
<path d="M114.476 69.393C93.2761 69.1716 87.8741 87.1106 85.6126 94.8723L67.6886 165.472L46.6765 84.6404C42.8803 73.4267 34.4075 66.9789 17.7629 70.1396C3.27105 72.8741 -2.27586 87.3306 0.83803 98.6394L27.3909 188.004C36.6627 215.399 43.7451 221.76 67.1015 221.747C90.151 221.526 97.4009 197.094 99.7037 189.573L131.096 72.9118C126.412 70.2437 120.587 69.2917 114.476 69.3913V69.393Z" fill="url(#paint7_linear_43_180)"/>
<defs>
<linearGradient id="paint0_linear_43_180" x1="-20" y1="150" x2="1302" y2="150" gradientUnits="userSpaceOnUse">
<stop stop-color="#5CB6A4"/>
<stop offset="1" stop-color="#FFB510" stop-opacity="0.74"/>
</linearGradient>
<linearGradient id="paint1_linear_43_180" x1="-20" y1="150" x2="1302" y2="150" gradientUnits="userSpaceOnUse">
<stop stop-color="#5CB6A4"/>
<stop offset="1" stop-color="#FFB510" stop-opacity="0.74"/>
</linearGradient>
<linearGradient id="paint2_linear_43_180" x1="-20" y1="150" x2="1302" y2="150" gradientUnits="userSpaceOnUse">
<stop stop-color="#5CB6A4"/>
<stop offset="1" stop-color="#FFB510" stop-opacity="0.74"/>
</linearGradient>
<linearGradient id="paint3_linear_43_180" x1="-20" y1="150" x2="1302" y2="150" gradientUnits="userSpaceOnUse">
<stop stop-color="#5CB6A4"/>
<stop offset="1" stop-color="#FFB510" stop-opacity="0.74"/>
</linearGradient>
<linearGradient id="paint4_linear_43_180" x1="-20" y1="150" x2="1302" y2="150" gradientUnits="userSpaceOnUse">
<stop stop-color="#5CB6A4"/>
<stop offset="1" stop-color="#FFB510" stop-opacity="0.74"/>
</linearGradient>
<linearGradient id="paint5_linear_43_180" x1="-20" y1="150" x2="1302" y2="150" gradientUnits="userSpaceOnUse">
<stop stop-color="#5CB6A4"/>
<stop offset="1" stop-color="#FFB510" stop-opacity="0.74"/>
</linearGradient>
<linearGradient id="paint6_linear_43_180" x1="-20" y1="150" x2="1302" y2="150" gradientUnits="userSpaceOnUse">
<stop stop-color="#5CB6A4"/>
<stop offset="1" stop-color="#FFB510" stop-opacity="0.74"/>
</linearGradient>
<linearGradient id="paint7_linear_43_180" x1="-20" y1="150" x2="1302" y2="150" gradientUnits="userSpaceOnUse">
<stop stop-color="#5CB6A4"/>
<stop offset="1" stop-color="#FFB510" stop-opacity="0.74"/>
</linearGradient>
</defs>
</svg>
