<?xml version="1.0" encoding="UTF-8"?>
<svg id="Layer_2" xmlns="http://www.w3.org/2000/svg" viewBox="0 0 410.04 96.1">
  <defs>
    <style>
      .cls-1 {
        fill: #5a45fe;
      }
    </style>
  </defs>
  <g id="Layer_1-2" data-name="Layer_1">
    <g>
      <path class="cls-1" d="M129.62,91.71c-1.93,2.17-4.7,3.25-8.32,3.25s-6.43-1.08-8.44-3.25c-1.93-2.17-2.9-5-2.9-8.51v-44.17c0-2.84.76-5.09,2.27-6.76,1.6-1.75,3.86-2.63,6.81-2.63s5.21.71,6.81,2.13c1.6,1.34,2.44,3.21,2.52,5.63v1h.24c3.61-6.51,8.82-9.76,15.63-9.76,3.02,0,5.38.96,7.06,2.88,1.68,1.84,2.52,4.05,2.52,6.63s-.84,5.01-2.52,7.01c-1.68,2-4.16,3-7.44,3-7.56,0-11.34,4.21-11.34,12.64v22.4c0,3.5-.97,6.34-2.9,8.51h0Z"/>
      <path class="cls-1" d="M195.28,96.09c-12.1,0-21.34-3.05-27.73-9.14-6.39-6.17-9.58-14.52-9.58-25.03,0-9.84,3.11-17.85,9.33-24.03,6.22-6.17,14.2-9.26,23.95-9.26s17.39,2.71,22.69,8.13c5.38,5.42,8.07,12.35,8.07,20.77,0,3.59-.84,6.26-2.52,8.01-1.68,1.67-4.54,2.5-8.57,2.5h-30.5c0,2.5,1.3,4.67,3.91,6.51,2.61,1.84,6.51,2.76,11.72,2.76,2.52,0,5.3-.42,8.32-1.25,3.02-.83,5.29-1.25,6.81-1.25,2.52,0,4.54.79,6.05,2.37,1.51,1.58,2.27,3.5,2.27,5.76,0,3.92-1.85,6.97-5.55,9.14-4.2,2.67-10.42,4-18.65,4h0ZM180.03,56.04h20.92c.08-.25.12-.75.12-1.5,0-2.42-.84-4.46-2.52-6.13-1.68-1.75-4.2-2.63-7.56-2.63-3.11,0-5.71.96-7.82,2.88-2.1,1.92-3.15,4.38-3.15,7.38h0Z"/>
      <path class="cls-1" d="M253.76,91.71c-1.93,2.17-4.7,3.25-8.32,3.25s-6.43-1.08-8.44-3.25c-1.93-2.17-2.9-5-2.9-8.51v-44.17c0-2.84.75-5.09,2.27-6.76,1.6-1.75,3.86-2.63,6.81-2.63s5.08.83,6.68,2.5c1.68,1.58,2.56,3.71,2.65,6.38v1.63h.24c1.68-3.5,4.5-6.3,8.44-8.38,3.95-2.09,8.15-3.13,12.6-3.13,17.48,0,26.21,10.8,26.21,32.41v22.15c0,3.5-.97,6.34-2.9,8.51-1.93,2.17-4.7,3.25-8.32,3.25s-6.43-1.08-8.44-3.25c-2.02-2.25-3.03-5.09-3.03-8.51v-21.27c0-8.84-3.15-13.26-9.45-13.26-3.53,0-6.26,1.21-8.19,3.63-1.93,2.42-2.9,5.63-2.9,9.64l-.12,21.27c0,3.5-.97,6.34-2.9,8.51h0Z"/>
      <path class="cls-1" d="M325.05,29.65c-3.37.09-6.01,1.21-7.9,3.24-1.93,2.17-2.89,4.97-2.89,8.39v41.92c0,3.42,1.02,6.26,3.04,8.51,2.02,2.17,4.82,3.26,8.43,3.26s6.4-1.09,8.33-3.26c1.93-2.17,2.9-5.01,2.9-8.51v-41.92c0-3.5-.96-6.31-2.9-8.39-1.93-2.17-4.72-3.24-8.33-3.24-.24,0-.45,0-.68,0h0Z"/>
      <path class="cls-1" d="M358.88,94.96c-2.86,0-5.34-.96-7.44-2.88-2.1-2-3.15-4.34-3.15-7.01,0-2,.59-3.76,1.76-5.26l14.49-17.77-13.99-17.27c-1.01-1.34-1.51-3-1.51-5.01,0-2.75,1.05-5.13,3.15-7.13,2.18-2,4.66-3,7.44-3,2.1,0,3.78.46,5.04,1.37,1.26.92,2.65,2.33,4.16,4.26l10.08,13.14h.24l9.71-12.76c1.18-1.5,2.02-2.54,2.52-3.13.59-.58,1.51-1.21,2.78-1.88,1.26-.67,2.73-1,4.41-1,2.86,0,5.38,1,7.56,3,2.18,2,3.27,4.38,3.27,7.13,0,2-.5,3.63-1.51,4.88l-13.61,17.39,14.12,17.77c1.09,1.42,1.64,3.17,1.64,5.26,0,2.67-1.09,5.01-3.27,7.01-2.1,1.92-4.62,2.88-7.56,2.88-1.85,0-3.4-.42-4.66-1.25-1.18-.83-2.48-2.17-3.91-4l-11.22-13.77h-.24l-11.47,13.77c-2.86,3.5-5.8,5.26-8.82,5.26h0Z"/>
      <path class="cls-1" d="M49.57,24.31c6.76,0,12.24-5.44,12.24-12.15S56.33,0,49.57,0s-12.24,5.44-12.24,12.15,5.48,12.15,12.24,12.15Z"/>
      <path class="cls-1" d="M28.16,94.96h-.63c-4.54,0-7.98-1.29-10.34-3.88-2.35-2.67-4.29-6.72-5.8-12.14L.81,43.78c-1.18-4.17-.84-7.55,1.01-10.14,1.93-2.67,5.08-4,9.45-4,5.13,0,8.36,3.21,9.7,9.64l8.07,31.28h.24l6.93-27.28c1.17-4.92,2.77-8.43,4.79-10.51,2.02-2.08,4.91-3.13,8.7-3.13h.63c3.61.06,6.3,1.11,8.07,3.13,1.77,2,3.24,5.51,4.41,10.51l7.06,27.28h.24l7.94-31.28c.76-3.25,1.89-5.67,3.4-7.26,1.6-1.58,3.95-2.37,7.06-2.37,4.12,0,7.06,1.33,8.82,4,1.85,2.59,2.19,5.97,1.01,10.14l-10.59,35.16c-1.68,5.34-3.7,9.34-6.05,12.01-2.27,2.59-5.59,3.92-9.96,4h-.75c-4.29,0-7.6-1.29-9.96-3.88-2.27-2.59-4.07-6.51-5.42-11.76l-6.05-21.52h-.24l-5.8,21.52c-1.34,5.01-3.23,8.88-5.67,11.64-2.35,2.67-5.59,4-9.71,4h.01Z"/>
      <path class="cls-1" d="M49.35,29.7c-9.14-.09-11.47,7.58-12.44,10.91l-7.73,30.22-9.06-34.6c-1.64-4.8-5.29-7.56-12.46-6.21C1.41,31.19-.98,37.38.36,42.22l11.45,38.25c4,11.73,7.05,14.45,17.12,14.44,9.94-.09,13.06-10.55,14.06-13.77l13.53-49.94c-2.02-1.14-4.53-1.55-7.17-1.51h0Z"/>
    </g>
  </g>
</svg>